<svg xmlns="http://www.w3.org/2000/svg" xmlns:xlink="http://www.w3.org/1999/xlink" version="1.1" xml:space="preserve" class="u-svg-content" viewBox="0 0 512 512" id="svg-7a82" data-color="rgb(0, 0, 0)"><g><path d="m457 121h-106v-35c0-24.813-20.187-45-45-45h-100c-24.813 0-45 20.187-45 45v35h-106c-30.327 0-55 24.673-55 55v240c0 30.327 24.673 55 55 55h402c30.327 0 55-24.673 55-55v-240c0-30.327-24.673-55-55-55zm-266-35c0-8.271 6.729-15 15-15h100c8.271 0 15 6.729 15 15v35h-130zm-111 355h-25c-13.785 0-25-11.215-25-25v-240c0-13.785 11.215-25 25-25h25zm322 0h-292v-290h37.783c-3.129 7.621-4.699 15.551-4.653 23.752.104 18.544 8.698 33.732 15.126 42.52l-16.05 37.573c-1.854 4.342-1.557 9.304.804 13.393l55 95.263c2.778 4.812 7.82 7.503 13.004 7.503 2.544 0 5.124-.648 7.486-2.013l69.282-40c3.445-1.989 5.959-5.266 6.989-9.108 1.029-3.842.49-7.937-1.499-11.382l-55-95.263c-2.36-4.089-6.509-6.827-11.196-7.393l-43.872-5.285c-3.813-4.973-10.012-14.771-10.075-25.976-.046-8.146 3.068-15.903 9.464-23.583h219.407zm-229.26-181.268 12.276-28.737 31.026 3.737 43.75 75.777-43.302 25zm309.26 156.268c0 13.785-11.215 25-25 25h-25v-290h25c13.785 0 25 11.215 25 25z"></path><path d="m326 271c24.813 0 45-20.187 45-45s-20.187-45-45-45-45 20.187-45 45 20.187 45 45 45zm0-60c8.271 0 15 6.729 15 15s-6.729 15-15 15-15-6.729-15-15 6.729-15 15-15z"></path></g></svg>